<svg width="24" height="33" viewBox="0 0 24 33" fill="none" xmlns="http://www.w3.org/2000/svg">
<path d="M22.1 8.4C20.5 4.1 16.4 1 11.5 1C6.7 1 2.6 4.1 1 8.4" stroke="currentColor" stroke-width="2" stroke-miterlimit="10" stroke-linecap="round" stroke-linejoin="round"></path>
<path d="M18 9.89999C17 7.19999 14.5 5.29999 11.5 5.29999C8.5 5.29999 6 7.19999 5 9.89999" stroke="currentColor" stroke-width="2" stroke-miterlimit="10" stroke-linecap="round" stroke-linejoin="round"></path>
<path d="M14 11.3C13.6 10.3 12.7 9.59998 11.6 9.59998C10.5 9.59998 9.50001 10.3 9.20001 11.3" stroke="currentColor" stroke-width="2" stroke-miterlimit="10" stroke-linecap="round" stroke-linejoin="round"></path>
<path d="M15.5 17.3C14.1 17 12.8 17.4 11.6 18.1C10.4 17.4 8.99998 17 7.69998 17.3C4.29998 18 2.89998 20.6 3.99998 25.7C4.89998 29.7 7.99998 32.4 10.9 31.8C11.1 31.8 11.3 31.7 11.5 31.6C11.7 31.7 11.9 31.8 12.1 31.8C15 32.4 17.9 29.7 19 25.7C20.2 21.1 18.7 18 15.5 17.3Z" stroke="currentColor" stroke-width="2" stroke-miterlimit="10" stroke-linecap="round" stroke-linejoin="round"></path>
<path d="M11.6 17.3C11.2 16.4 12 15.5 11.6 14.4" stroke="currentColor" stroke-width="2" stroke-miterlimit="10" stroke-linecap="round" stroke-linejoin="round"></path>
<path d="M7.39996 22.2C7.39996 21.8 7.79996 21.1 8.09996 21.1" stroke="currentColor" stroke-width="2" stroke-miterlimit="10" stroke-linecap="round" stroke-linejoin="round"></path>
</svg>