<svg width="45" height="50" viewBox="0 0 45 50" fill="none" xmlns="http://www.w3.org/2000/svg">
<path d="M11.5188 19.4254C11.3664 19.5779 11.0615 19.5779 10.909 19.7303C3.89648 23.8464 1 37.8714 1 37.8714L21.2754 48.8476C21.2754 48.8476 23.867 37.719 26.611 32.9931C28.5928 29.4869 30.2697 29.9442 31.7942 27.81C32.5564 26.8953 33.3187 25.2184 34.0809 23.5415" stroke="black" stroke-width="2" stroke-miterlimit="10" stroke-linecap="round" stroke-linejoin="round"></path>
<path d="M22.0376 49L35.9103 47.7804L40.7885 29.6393C44.1424 17.1387 45.6668 13.0226 39.8739 10.7359C31.7942 7.68699 24.3243 4.63806 21.1229 3.26604C19.7509 2.65626 18.2265 2.65626 16.8544 3.1136C13.0433 4.63806 10.6041 8.90656 9.07968 12.4128C8.01255 15.0044 9.07968 18.2058 11.8237 19.2729L22.1901 23.9988C24.7817 25.2183 27.983 24.1512 29.2026 21.5596C30.5746 18.5107 34.2333 11.4982 40.941 11.3457" stroke="black" stroke-width="2" stroke-miterlimit="10" stroke-linecap="round" stroke-linejoin="round"></path>
<path d="M26.1536 4.18074L26.4585 2.96117C26.9159 1.43671 28.4403 0.674473 29.9648 1.13181L34.2333 2.65628C35.7578 3.11362 36.52 4.79053 35.9102 6.16255L35.4529 7.83946" stroke="black" stroke-width="2" stroke-miterlimit="10" stroke-linecap="round" stroke-linejoin="round"></path>
<path d="M8.62231 28.877C8.62231 28.877 14.5677 32.9931 20.5131 34.9749" stroke="black" stroke-width="2" stroke-miterlimit="10" stroke-linecap="round" stroke-linejoin="round"></path>
<path d="M18.074 20.0352L16.702 23.8463" stroke="black" stroke-width="2" stroke-miterlimit="10" stroke-linecap="round" stroke-linejoin="round"></path>
</svg>