<svg width="30" height="31" viewBox="0 0 30 31" fill="none" xmlns="http://www.w3.org/2000/svg">
<path d="M19.6184 18.5209C19.6184 18.5209 19.4184 26.4209 19.4184 29.4209" stroke="black" stroke-width="2" stroke-miterlimit="10" stroke-linecap="round" stroke-linejoin="round"></path>
<path d="M11.4184 18.8209C11.4184 18.8209 8.8184 17.9209 8.2184 15.5209C7.8184 14.1209 6.3184 12.8209 5.4184 12.2209C3.1184 10.7209 4.8184 6.62087 8.7184 9.52087C9.5184 10.1209 10.0184 10.7209 10.7184 11.2209C10.4184 10.1209 10.1184 8.82087 10.0184 7.22087C9.7184 3.62087 10.6184 0.320865 13.4184 1.12087C15.4184 1.72087 14.1184 4.92087 15.0184 8.92087C15.3184 7.32087 15.8184 5.52087 16.6184 4.22087C19.0184 0.0208654 22.9184 0.720865 22.3184 4.22087C22.0184 5.72087 20.1184 8.12087 19.7184 10.9209C21.0184 9.62087 21.3184 9.52087 21.8184 9.02087C23.8184 7.12087 27.3184 9.52086 23.7184 12.9209C21.5184 14.9209 21.9184 16.0209 20.6184 17.4209C19.8184 18.2209 19.1184 18.6209 18.5184 18.8209" stroke="black" stroke-width="2" stroke-miterlimit="10" stroke-linecap="round" stroke-linejoin="round"></path>
<path d="M12.4184 29.4209L11.5184 18.8209C11.5184 18.8209 12.4184 19.1209 13.8184 19.0209" stroke="black" stroke-width="2" stroke-miterlimit="10" stroke-linecap="round" stroke-linejoin="round"></path>
<path d="M1.01836 11.7209C0.818359 13.6209 2.31836 14.3209 2.31836 14.3209" stroke="black" stroke-width="2" stroke-miterlimit="10" stroke-linecap="round" stroke-linejoin="round"></path>
<path d="M28.6184 9.52089C29.0184 7.82089 28.0184 7.22089 28.0184 7.22089" stroke="black" stroke-width="2" stroke-miterlimit="10" stroke-linecap="round" stroke-linejoin="round"></path>
</svg>